<svg xmlns="http://www.w3.org/2000/svg" viewBox="0 0 38 38">
  <defs>
    <style>.cls-2{fill:#fff;}</style>
  </defs>
  <path class="cls-2" d="M30.48,11.49a.79.79,0,0,0-.64-.33h-18l-.73-2.12a.84.84,0,0,0-.46-.48L7,7.12A.79.79,0,1,0,6.41,8.6L9.77,9.92l4.11,11.86a.64.64,0,0,0-.4.4l-1.19,3.3a.69.69,0,0,0,.08.61.68.68,0,0,0,.54.28h.61a2.38,2.38,0,1,0,3.54,0h5.19a2.38,2.38,0,1,0,3.54,0h.74a.66.66,0,0,0,0-1.32H13.85L14.59,23a.77.77,0,0,0,.3.06H26.53a.8.8,0,0,0,.76-.55l3.3-10.31A.78.78,0,0,0,30.48,11.49ZM15.29,29A1.06,1.06,0,1,1,16.35,28,1.06,1.06,0,0,1,15.29,29ZM24,29A1.06,1.06,0,1,1,25.08,28,1.05,1.05,0,0,1,24,29Zm4.16-14.48H24.13V12.75h4.62ZM27,18.17H24.13V16.12h3.54Zm-8.13,0V16.12h3.66v2.05Zm3.66,1.59v1.72H18.88V19.76ZM13.6,16.12h3.7v2.05h-3Zm5.28-1.59V12.75h3.66v1.78ZM17.3,12.75v1.78H13.05l-.62-1.78Zm-2.44,7H17.3v1.72H15.46Zm9.27,1.72V19.76H26.5L26,21.48Z"/>
</svg>
